<svg xmlns="http://www.w3.org/2000/svg" width="2710.21383" height="933.54028" viewBox="0 0 2710.21383 933.54028">
  <title>Fichier 2</title>
  <g id="Calque_2" data-name="Calque 2">
    <g id="Calque_1-2" data-name="Calque 1">
      <g>
        <path d="M1284.72363,35.2216c73.4247,0,113.51813,34.29644,113.51813,85.01722,0,37.678-24.15317,71.0083-82.60278,83.568,70.5262,9.17808,100.47538,43.9581,100.47538,87.91522,0,48.78893-39.12727,95.64455-134.77182,95.64455H1139.325v-17.39l50.23769-5.31342c1.44974-46.373,1.44974-93.22963,1.44974-140.56784V197.5272c0-46.373,0-93.71222-1.44974-140.08525L1139.325,52.128V35.2216Zm-52.169,19.80494c-1.44974,45.40686-1.44974,91.77988-1.44974,140.08524h30.43276c65.69537,0,96.12714-24.15268,96.12714-73.4242,0-46.85611-27.05069-66.661-85.98289-66.661Zm39.12727,312.53509c67.14413,0,101.44057-27.05069,101.44057-75.83962,0-50.23769-32.84769-77.28838-108.20373-77.28838h-33.81385c0,56.51728,0,105.78881,1.44974,153.128Z"/>
        <path d="M1708.845,371.90889v15.45767l-68.59387,4.34726-3.86368-48.30536c-27.05167,33.33126-60.38194,50.72127-94.19579,50.72127-43.47453,0-69.07646-24.63577-68.59288-95.64456l1.44875-134.28874-40.09344-6.76267V141.97608l72.45755-6.27958,4.83083,5.31342-2.41492,73.42371v81.153c0,50.2377,15.45768,67.6277,46.85562,67.6277,27.53426,0,54.10235-13.04275,78.73812-38.64468l.96616-160.37326-39.61084-6.76267V141.97608l71.49137-6.27958,5.31441,5.31342-1.93233,73.42371V366.11189Z"/>
        <path d="M1817.04678,200.90829c17.39-42.50836,48.30536-68.59338,78.73713-68.59338,15.45768,0,31.39893,6.76267,36.71235,17.39,0,20.7711-8.21192,32.84719-27.05069,32.84719-12.07658,0-21.25467-5.7965-30.91535-14.00842l-6.76316-5.79651c-22.70343,14.97459-38.16111,37.19494-50.23671,70.52521V277.2305c0,24.63576.48259,61.34811.96518,88.3988l44.44168,6.27959v15.45767H1739.7584V371.90889l39.60986-5.797c.96617-27.05069,1.44974-64.24563,1.44974-88.88139V250.6624c0-30.91535-.96616-50.72028-1.93233-73.42371l-42.99194-3.38109V158.39993l69.56-25.60193,6.76217,4.83034Z"/>
        <path d="M1981.28816,260.32407c.48259,71.49138,38.1611,106.754,89.365,106.754,34.29644,0,56.99987-14.9741,75.83864-37.67753l10.14425,7.72835c-19.80493,34.78-53.13619,57.00086-98.05948,57.00086-67.6277,0-116.41565-46.85661-116.41565-129.45841,0-80.67,54.585-132.35641,118.348-132.35641,56.0337,0,96.61072,38.16111,96.61072,98.54256,0,12.55918-.96617,22.70343-3.38208,29.94919Zm113.51715-18.35618c21.25467,0,26.08452-10.62684,26.08452-26.08452,0-33.81385-25.601-64.24661-62.79687-64.24661-35.26261,0-70.52522,28.98351-76.32221,90.33113Z"/>
        <path d="M2428.59952,369.01039c-11.594,17.39-25.11934,24.15317-42.02577,24.15317-24.63577,0-40.09344-16.42384-44.4407-42.99194-29.46659,29.94919-48.78893,43.95811-80.18688,43.95811-38.64468,0-69.56-22.22084-69.56-63.763,0-32.36509,18.83975-56.03469,84.53413-79.70429,18.83975-5.796,42.02577-12.55917,64.24662-17.39V217.81472c0-53.13521-15.94126-66.178-52.65262-66.178a99.91742,99.91742,0,0,0-33.81385,5.31392l-10.62684,35.74569c-3.86467,14.00892-11.11042,21.25467-23.6696,21.25467-12.07659,0-20.28851-6.76316-21.25467-18.35617,10.14425-39.61036,47.82178-63.28,99.02564-63.28,53.61878,0,79.7033,24.15268,79.7033,86.94955V333.74778c0,28.01685,7.72933,36.71235,20.77208,36.71235,8.69451,0,14.49151-3.86467,21.73727-11.594Zm-87.43263-120.28032c-19.80494,5.31441-41.05961,12.07659-54.10236,17.39-46.85562,17.87358-55.55112,38.1611-55.55112,57.48345,0,28.983,18.35618,42.02577,44.4407,42.02577,20.2885,0,34.29742-8.6955,65.21278-33.33028Z"/>
        <path d="M2710.21383,371.90889v15.45767L2641.62,391.71382l-3.86368-48.30536c-27.05168,33.33126-60.38195,50.72127-94.1958,50.72127-43.47453,0-69.07646-24.63577-68.59288-95.64456l1.44876-134.28874-40.09344-6.76267V141.97608l72.45754-6.27958,4.83083,5.31342-2.41492,73.42371v81.153c0,50.2377,15.45768,67.6277,46.85562,67.6277,27.53426,0,54.10236-13.04275,78.73812-38.64468l.96617-160.37326-39.61085-6.76267V141.97608l71.49138-6.27958,5.31441,5.31342-1.93234,73.42371V366.11189Z"/>
        <path d="M1209.85116,677.69611c25.60193-28.49944,54.10137-40.09245,82.11822-40.09245,57.48345,0,100.47539,48.788,100.47539,128.00866,0,79.7033-43.95811,133.80566-106.755,133.80566-24.63576,0-51.20287-8.6955-75.356-38.16111l-3.86368,36.22878-74.39087-4.83084V877.19714l41.54319-6.27959c.48259-26.5681.96616-63.763.96616-88.3988V542.4417l-43.9581-4.34726V523.11936l73.90729-20.28752,7.24575,4.34725-1.93233,74.38988Zm1.44875,166.17075c22.70343,22.21986,45.89044,30.91536,67.14413,30.91536,40.09344,0,74.87345-31.39893,74.87345-106.2714,0-70.04262-29.94918-106.755-72.45754-106.755-18.35618,0-39.61085,4.83083-69.56,32.3641Z"/>
        <path d="M1543.16278,877.19714v15.45767h-127.0425V877.19714l44.92428-6.27959c.48258-28.50043.96616-59.89837.96616-88.3988V541.95911l-43.9581-3.86467V523.11936l74.87345-20.28752,7.24576,4.34725-1.44975,74.38988V782.51875c0,28.50043.48358,59.89837.96617,88.3988Z"/>
        <path d="M1609.82037,765.61232c.48258,71.49138,38.1611,106.754,89.365,106.754,34.29644,0,56.99987-14.9741,75.83863-37.67753l10.14426,7.72834c-19.80493,34.78-53.13619,57.00086-98.05948,57.00086-67.6277,0-116.41565-46.8566-116.41565-129.4584,0-80.66947,54.58495-132.35592,118.348-132.35592,56.0337,0,96.61072,38.16111,96.61072,98.54207,0,12.55917-.96617,22.70343-3.38208,29.94918Zm113.51715-18.35617c21.25467,0,26.08452-10.62685,26.08452-26.08452,0-33.81385-25.601-64.24662-62.79687-64.24662-35.26261,0-70.52522,28.983-76.32222,90.33114Z"/>
        <path d="M2087.55955,877.19714v15.45767l-68.59386,4.34726-3.86368-48.30536c-27.05168,33.33126-60.38195,50.72127-94.1958,50.72127-43.47453,0-69.07646-24.63576-68.59288-95.64455l1.44876-134.28924-40.09344-6.76218V647.26434l72.45754-6.27959,4.83084,5.31342-2.41493,73.42371v81.153c0,50.23769,15.45768,67.6277,46.85562,67.6277,27.53426,0,54.10236-13.04276,78.73812-38.64468l.96617-160.37376-39.61085-6.76218V647.26434l71.49138-6.27959,5.31441,5.31342-1.93234,73.42371V871.40014Z"/>
      </g>
      <path d="M428.78884,255.874c45.97736,45.97736,44.97785,124.93848-1.999,170.91584-45.97736,46.97686-124.93848,47.97637-170.91584,1.999l-47.97637-47.97637c-47.97637-47.97638-123.939-47.97638-171.91534,0s-47.97637,123.939,0,171.91534,123.939,47.97637,171.91534,0L255.874,504.75143c45.97736-45.97735,124.93848-44.97785,170.91584,1.999,46.97686,45.97736,47.97637,124.93847,1.999,170.91583l-47.97637,47.97638c-47.97638,47.97637-47.97638,123.939,0,171.91534s123.939,47.97637,171.91534,0,47.97637-123.939,0-171.91534l-47.97638-47.97638c-45.97735-45.97736-44.97785-124.93847,1.999-170.91583,45.97736-46.97687,124.93847-47.97637,170.91583-1.999l47.97638,47.97638c47.97637,47.97637,123.939,47.97637,171.91534,0s47.97637-123.939,0-171.91534-123.939-47.97638-171.91534,0l-47.97638,47.97637c-45.97736,45.97736-124.93847,44.97785-170.91583-1.999-46.97687-45.97736-47.97637-124.93848-1.999-170.91584l47.97638-47.97637c47.97637-47.97637,47.97637-123.939,0-171.91534s-123.939-47.97637-171.91534,0-47.97638,123.939,0,171.91534Zm-137.93207,88.9562c64.968,0,119.94093,55.97243,119.94093,121.94s-54.97293,121.94-119.94093,121.94H222.89024c-67.96653,0-121.93995,53.97342-121.93995,121.93995S154.92371,832.59,222.89024,832.59s121.94-53.97342,121.94-121.93995V642.68351c0-64.968,55.97243-119.94094,121.94-119.94094s121.94,54.97293,121.94,119.94094V710.65c0,67.96653,53.97342,121.93995,121.93995,121.93995S832.59,778.61657,832.59,710.65,778.61657,588.71009,710.65,588.71009H642.68351c-64.968,0-119.94094-55.97244-119.94094-121.93995S577.7155,344.83019,642.68351,344.83019H710.65c67.96653,0,121.93995-53.97342,121.93995-121.93995S778.61657,100.95029,710.65,100.95029s-121.93995,53.97342-121.93995,121.94v67.96653c0,64.968-55.97244,119.94093-121.93995,119.94093S344.83019,355.82477,344.83019,290.85677V222.89024c0-67.96653-53.97342-121.93995-121.93995-121.93995s-121.93995,53.97342-121.93995,121.94,53.97342,121.94,121.94,121.94Z"/>
    </g>
  </g>
</svg>
